<svg xmlns="http://www.w3.org/2000/svg" viewBox="0 0 1000 760"><rect width="1000" height="760" fill="#1b3140"/><circle cx="500" cy="175" r="105" fill="#10131d"/><path d="M420 150l28-95 45 70 42-82 26 108" fill="#24406f"/><path d="M402 145q98-70 196 0v108q-35 55-98 55t-98-55z" fill="#e4b08c"/><path d="M432 196h34v18h-34zm102 0h34v18h-34z" fill="#fff"/><path d="M457 246q43-18 86 0" fill="none" stroke="#151515" stroke-width="10"/><path d="M362 285q138-36 276 0l55 360H307z" fill="#11151d"/><path d="M420 360l-120 115M580 360l120 115" stroke="#1b4f77" stroke-width="55" stroke-linecap="round"/><path d="M300 475q200-80 400 0" fill="none" stroke="#7fe7ff" stroke-width="12"/><text x="500" y="700" text-anchor="middle" fill="#fff" font-family="sans-serif" font-weight="bold" font-size="54">ACT</text></svg>